# xmcd
# Copyright (C) 1995-1998 Ti Kan
#
# Track frame offsets:
#       150
#       25716
#       57938
#       65355
#       70005
#       101039
#       102314
#       121628
#
# Disc length: 1816 seconds
#
# Revision: 0
# Processed by: cddbd v1.5.2PL0 Copyright (c) Steve Scherf et al.
# Submitted via: CD-Transfer v1.0
#
DISCID=61071608
DTITLE=Sämi Krababble and The Fuckin' Rainbow Warriors - 
DYEAR=1900
DGENRE=
TTITLE0=Yb 4tustung Start
TTITLE1=Yb 4tustung Normal
TTITLE2=Sämi Titelsong
TTITLE3=Sämi Titelsong
TTITLE4=Sämi Hintergrund
TTITLE5=Sämi Paris
TTITLE6=Bayern
TTITLE7=Hütt Hei Sie Wieder Mau Gwunne
EXTD=
EXTT0=
EXTT1=
EXTT2=
EXTT3=
EXTT4=
EXTT5=
EXTT6=
EXTT7=
PLAYORDER=
